<?xml version="1.0" encoding="UTF-8" standalone="no"?>
<!-- Created with Inkscape (http://www.inkscape.org/) -->

<svg
   xmlns:dc="http://purl.org/dc/elements/1.1/"
   xmlns:cc="http://creativecommons.org/ns#"
   xmlns:rdf="http://www.w3.org/1999/02/22-rdf-syntax-ns#"
   xmlns:svg="http://www.w3.org/2000/svg"
   xmlns="http://www.w3.org/2000/svg"
   xmlns:sodipodi="http://sodipodi.sourceforge.net/DTD/sodipodi-0.dtd"
   xmlns:inkscape="http://www.inkscape.org/namespaces/inkscape"
   id="svg2"
   sodipodi:version="0.32"
   inkscape:version="0.48.0 r9654"
   width="300"
   height="180"
   version="1.0"
   sodipodi:docname="boy.svg">
  <metadata
     id="metadata7">
    <rdf:RDF>
      <cc:Work
         rdf:about="">
        <dc:format>image/svg+xml</dc:format>
        <dc:type
           rdf:resource="http://purl.org/dc/dcmitype/StillImage" />
      </cc:Work>
    </rdf:RDF>
  </metadata>
  <defs
     id="defs5">
    <filter
       id="filter3877"
       inkscape:label="Inner Shadow"
       inkscape:menu="Shadows and Glows"
       inkscape:menu-tooltip="Adds a colorizable drop shadow inside"
       color-interpolation-filters="sRGB">
      <feGaussianBlur
         id="feGaussianBlur3879"
         stdDeviation="4"
         result="result8" />
      <feOffset
         id="feOffset3881"
         dx="4"
         dy="4"
         result="result11" />
      <feComposite
         id="feComposite3883"
         in2="result11"
         result="result6"
         in="SourceGraphic"
         operator="in" />
      <feFlood
         id="feFlood3885"
         result="result10"
         in="result6"
         flood-opacity="1"
         flood-color="rgb(0,0,0)" />
      <feBlend
         id="feBlend3887"
         in2="result10"
         mode="normal"
         in="result6"
         result="result12" />
      <feComposite
         id="feComposite3889"
         in2="SourceGraphic"
         result="result2"
         operator="in" />
    </filter>
    <filter
       id="filter4128"
       inkscape:label="Inner Shadow"
       inkscape:menu="Shadows and Glows"
       inkscape:menu-tooltip="Adds a colorizable drop shadow inside"
       color-interpolation-filters="sRGB">
      <feGaussianBlur
         id="feGaussianBlur4130"
         stdDeviation="4"
         result="result8" />
      <feOffset
         id="feOffset4132"
         dx="4"
         dy="4"
         result="result11" />
      <feComposite
         id="feComposite4134"
         in2="result11"
         result="result6"
         in="SourceGraphic"
         operator="in" />
      <feFlood
         id="feFlood4136"
         result="result10"
         in="result6"
         flood-opacity="1"
         flood-color="rgb(0,0,0)" />
      <feBlend
         id="feBlend4138"
         in2="result10"
         mode="normal"
         in="result6"
         result="result12" />
      <feComposite
         id="feComposite4140"
         in2="SourceGraphic"
         result="result2"
         operator="in" />
    </filter>
    <filter
       id="filter4148"
       inkscape:label="Inner Shadow"
       inkscape:menu="Shadows and Glows"
       inkscape:menu-tooltip="Adds a colorizable drop shadow inside"
       color-interpolation-filters="sRGB">
      <feGaussianBlur
         id="feGaussianBlur4150"
         stdDeviation="4"
         result="result8" />
      <feOffset
         id="feOffset4152"
         dx="4"
         dy="4"
         result="result11" />
      <feComposite
         id="feComposite4154"
         in2="result11"
         result="result6"
         in="SourceGraphic"
         operator="in" />
      <feFlood
         id="feFlood4156"
         result="result10"
         in="result6"
         flood-opacity="1"
         flood-color="rgb(0,0,0)" />
      <feBlend
         id="feBlend4158"
         in2="result10"
         mode="normal"
         in="result6"
         result="result12" />
      <feComposite
         id="feComposite4160"
         in2="SourceGraphic"
         result="result2"
         operator="in" />
    </filter>
    <filter
       id="filter4168"
       inkscape:label="Inner Shadow"
       inkscape:menu="Shadows and Glows"
       inkscape:menu-tooltip="Adds a colorizable drop shadow inside"
       color-interpolation-filters="sRGB">
      <feGaussianBlur
         id="feGaussianBlur4170"
         stdDeviation="4"
         result="result8" />
      <feOffset
         id="feOffset4172"
         dx="4"
         dy="4"
         result="result11" />
      <feComposite
         id="feComposite4174"
         in2="result11"
         result="result6"
         in="SourceGraphic"
         operator="in" />
      <feFlood
         id="feFlood4176"
         result="result10"
         in="result6"
         flood-opacity="1"
         flood-color="rgb(0,0,0)" />
      <feBlend
         id="feBlend4178"
         in2="result10"
         mode="normal"
         in="result6"
         result="result12" />
      <feComposite
         id="feComposite4180"
         in2="SourceGraphic"
         result="result2"
         operator="in" />
    </filter>
    <filter
       id="filter4201"
       inkscape:label="Inner Shadow"
       inkscape:menu="Shadows and Glows"
       inkscape:menu-tooltip="Adds a colorizable drop shadow inside"
       color-interpolation-filters="sRGB">
      <feGaussianBlur
         id="feGaussianBlur4203"
         stdDeviation="4"
         result="result8" />
      <feOffset
         id="feOffset4205"
         dx="4"
         dy="4"
         result="result11" />
      <feComposite
         id="feComposite4207"
         in2="result11"
         result="result6"
         in="SourceGraphic"
         operator="in" />
      <feFlood
         id="feFlood4209"
         result="result10"
         in="result6"
         flood-opacity="1"
         flood-color="rgb(0,0,0)" />
      <feBlend
         id="feBlend4211"
         in2="result10"
         mode="normal"
         in="result6"
         result="result12" />
      <feComposite
         id="feComposite4213"
         in2="SourceGraphic"
         result="result2"
         operator="in" />
    </filter>
    <filter
       id="filter4245"
       inkscape:label="Inner Shadow"
       inkscape:menu="Shadows and Glows"
       inkscape:menu-tooltip="Adds a colorizable drop shadow inside"
       color-interpolation-filters="sRGB">
      <feGaussianBlur
         id="feGaussianBlur4247"
         stdDeviation="4"
         result="result8" />
      <feOffset
         id="feOffset4249"
         dx="4"
         dy="4"
         result="result11" />
      <feComposite
         id="feComposite4251"
         in2="result11"
         result="result6"
         in="SourceGraphic"
         operator="in" />
      <feFlood
         id="feFlood4253"
         result="result10"
         in="result6"
         flood-opacity="1"
         flood-color="rgb(0,0,0)" />
      <feBlend
         id="feBlend4255"
         in2="result10"
         mode="normal"
         in="result6"
         result="result12" />
      <feComposite
         id="feComposite4257"
         in2="SourceGraphic"
         result="result2"
         operator="in" />
    </filter>
  </defs>
  <sodipodi:namedview
     inkscape:window-height="694"
     inkscape:window-width="1024"
     inkscape:pageshadow="2"
     inkscape:pageopacity="0.0"
     guidetolerance="10.0"
     gridtolerance="10.0"
     objecttolerance="10.0"
     borderopacity="1.0"
     bordercolor="#666666"
     pagecolor="#ffffff"
     id="base"
     inkscape:zoom="1.3321555"
     inkscape:cx="149.1793"
     inkscape:cy="54.991489"
     inkscape:window-x="0"
     inkscape:window-y="26"
     inkscape:current-layer="svg2"
     showgrid="false"
     inkscape:window-maximized="1" />
  <path
     transform="matrix(0.15265539,-0.01955375,0.01673227,0.18647042,8.7816345,110.74759)"
     d="m 85.575596,134.13576 a 37.533157,60.729923 0 1 1 -75.066315,0 37.533157,60.729923 0 1 1 75.066315,0 z"
     sodipodi:ry="60.729923"
     sodipodi:rx="37.533157"
     sodipodi:cy="134.13576"
     sodipodi:cx="48.042439"
     id="path4142"
     style="fill:#ffccaa;fill-opacity:1;stroke:none;filter:url(#filter4128)"
     sodipodi:type="arc" />
  <path
     sodipodi:type="arc"
     style="fill:#ffccaa;fill-opacity:1;stroke:none;filter:url(#filter4128)"
     id="path4126"
     sodipodi:cx="48.042439"
     sodipodi:cy="134.13576"
     sodipodi:rx="37.533157"
     sodipodi:ry="60.729923"
     d="m 85.575596,134.13576 a 37.533157,60.729923 0 1 1 -75.066315,0 37.533157,60.729923 0 1 1 75.066315,0 z"
     transform="matrix(0.78916668,0,0,0.8068263,9.7223379,16.061362)" />
  <path
     style="fill:#ffe680;stroke:none;filter:url(#filter4168)"
     d="m 218.44297,101.93104 c 10.50928,0 6.0053,3.75331 10.50928,0 4.50398,-3.75332 0.75066,-9.007962 12.01061,-6.005309 11.25995,3.002652 10.50928,4.503979 15.01326,3.002652 4.50398,-1.501326 7.50663,3.753317 15.76393,2.251987 8.25729,-1.501324 9.75862,-3.00265 10.50928,-9.758618 0.75067,-6.755968 3.75332,-16.514588 3.75332,-16.514588 l -3.75332,-28.525199 -8.25729,-24.771883 -15.76393,-10.509283 -9.00796,-1.5013266 -15.76392,6.7559676 -9.75862,12.761273 -6.75597,38.283819 -3.00265,22.519894 z"
     id="path4166"
     inkscape:connector-curvature="0" />
  <path
     transform="matrix(0.8030303,0,0,0.94047619,48.849971,5.6562461)"
     style="fill:#ffccaa;fill-opacity:1;stroke:none;filter:url(#filter4148)"
     d="m 277.17403,56.247686 c -1.85871,17.339873 -17.08341,27.36492 -22.1279,26.730503 -9.6864,-1.218203 -28.39262,-17.537675 -27.08537,-34.914214 0.99149,-13.179397 18.80412,-22.801411 29.94644,-24.860266 8.5262,9.673761 20.58882,20.71117 19.26683,33.043977 z"
     id="path4146"
     inkscape:connector-curvature="0"
     sodipodi:nodetypes="ssscs" />
  <path
     inkscape:connector-curvature="0"
     style="fill:#000000"
     d="m 219.09001,102.38418 c -3.40598,-2.505152 -4.45407,-7.294976 -4.67768,-11.332359 0.20774,-10.636623 2.52087,-21.09378 3.49309,-31.670567 1.35083,-10.28772 2.41367,-20.789946 6.00574,-30.58433 3.45215,-6.003736 8.41757,-11.092441 13.78836,-15.415252 7.92108,-4.8834679 18.46262,-5.2782898 26.57348,-0.593034 5.24796,2.740672 11.01434,5.850776 13.196,11.75312 3.57577,8.295476 4.84204,17.336861 7.10675,26.032941 1.73148,8.066826 4.37627,16.415737 2.63644,24.702352 -0.52939,3.569222 -4.44365,1.721273 -2.55928,-1.230326 1.4055,-5.939806 -0.71423,-11.942119 -1.74757,-17.780536 -2.46634,-10.147097 -3.57959,-20.710677 -7.6055,-30.414586 -2.42174,-5.641105 -8.39199,-8.280167 -13.19617,-11.540009 -7.29547,-4.110369 -16.80415,-3.081894 -23.83781,1.10564 -5.49322,4.049731 -9.80215,9.602366 -13.26848,15.428378 -3.26221,9.21582 -4.14419,19.074587 -5.43897,28.716262 -1.00895,9.820411 -2.37161,19.600973 -3.49178,29.405682 0.31993,4.72478 1.9599,9.443055 4.28904,13.507884 l -0.38606,0.0521 -0.8796,-0.14337 0,0 z m 5.76924,-1.87529 c -4.87945,-4.316586 -5.69366,-11.506227 -5.33099,-17.648434 1.75697,-5.460281 1.56622,3.925985 1.97689,5.697022 0.36387,4.58306 2.62045,8.706609 5.76745,11.980292 2.11892,2.72859 -1.85271,0.74954 -2.41335,-0.0289 z m 46.90781,-0.594027 c -0.42382,-3.951507 2.50536,-7.950852 2.87883,-12.075684 1.98065,-7.793825 3.12341,-15.945808 1.50003,-23.921805 -0.76515,-4.678786 -2.10314,-9.28439 -4.28004,-13.507828 -0.22517,12.854585 0.0142,25.727996 -0.69833,38.565659 -0.8764,3.481341 -0.90561,9.068945 -4.28933,10.522064 -0.12402,-3.472942 1.98529,-7.179706 1.99704,-10.893029 0.37008,-5.881936 0.78519,-11.79218 0.56628,-17.683482 -2.72657,3.036491 -4.94197,6.675868 -8.18012,9.310304 -1.99309,2.909066 -9.61146,2.413927 -5.52023,6.813127 1.556,3.503398 3.75797,6.917484 4.33538,10.725401 -3.17363,-0.579116 -3.63342,-6.580263 -5.58425,-9.336042 -0.91587,-4.529078 -5.47334,-5.13261 -8.38897,-7.908985 -5.98187,-4.815417 -11.42218,-10.794811 -13.43695,-18.39747 -1.64988,-3.57134 -1.23216,3.585775 -1.42055,5.069222 -0.17468,8.208821 3.88816,15.664838 8.54068,22.141389 0.91611,1.244679 5.28461,7.212655 1.6655,6.168263 -3.5402,-4.619504 -6.65778,-9.607204 -9.464,-14.707052 -3.05218,-7.022572 -3.95593,-15.000791 -2.01962,-22.454856 0.67715,-4.201771 1.99975,-8.370431 2.11117,-12.61881 -2.53136,0.516999 -6.99584,4.625735 -8.34547,3.120476 3.90774,-2.765236 8.30293,-4.92078 11.50642,-8.593597 5.48865,-5.31152 11.40515,-10.352606 18.16948,-13.950422 4.646,-3.170352 4.83161,4.028018 7.03057,6.484667 4.55165,6.01958 11.02312,10.714165 14.15633,17.75014 3.12919,8.724092 5.68358,18.069816 4.72003,27.416232 -1.13128,6.949376 -2.61172,13.925338 -5.12706,20.514904 -0.3839,0.853906 -1.34483,2.629131 -2.42282,1.447214 z M 257.61563,81.512354 c 5.15376,-3.160114 8.91722,-8.273916 11.59276,-13.553472 0.0436,-7.354619 0.62405,-14.799925 -0.8058,-22.059231 -3.07187,-6.502933 -9.93327,-10.59685 -12.2111,-17.596896 -3.36104,-0.222074 -6.68987,2.754135 -9.55752,4.592571 -4.48264,3.350364 -8.45475,7.305186 -12.48172,11.174886 0.16352,1.30053 -0.32103,3.186117 0.23579,4.131579 1.6331,-0.09097 7.47864,1.014616 4.05611,2.053776 -1.79866,-0.168726 4.77471,4.033079 1.39918,5.460928 -2.68663,1.9227 -9.33748,-2.082356 -6.95164,3.466376 1.97559,6.613414 5.95115,12.515384 10.44478,17.677331 3.3666,2.265557 6.37331,5.943587 10.65681,6.189561 1.32115,-0.180226 2.4887,-0.884688 3.62235,-1.537409 z m -10.70004,-4.755495 c -0.86963,-1.448112 -4.21522,-2.812088 -2.66,-4.72237 0.54078,-2.421225 2.06472,-2.347163 3.56183,-1.411786 2.54239,-2.529617 6.35353,0.843158 9.24574,-0.189817 -1.72027,3.365594 -4.73673,7.568736 -9.12555,6.634558 l -0.56916,-0.124526 -0.45286,-0.186059 0,0 z m 2.55267,-3.295612 c 3.51058,-0.771088 -1.05822,-0.414325 -2.08883,0.411268 0.68554,0.153874 1.41845,-0.310208 2.08883,-0.411268 z m -5.32893,-6.480344 c -3.15369,-0.951906 -0.20821,-10.125418 0.1529,-4.130455 -0.42421,5.009907 4.79524,1.395168 6.31503,1.582325 -1.50156,1.791299 -4.02717,3.827412 -6.46793,2.54813 z m 5.73021,-14.667743 c -0.5148,-4.388327 4.75102,-8.668163 8.86547,-6.317742 1.49662,0.981519 -4.0113,-0.916981 -4.98668,0.610447 -1.72164,0.257851 -4.28756,4.314971 -1.36175,1.314152 1.71686,-2.787392 10.57272,-1.905539 7.31925,1.982148 -2.19241,2.718873 -6.87958,4.358364 -9.83629,2.410995 z m 3.72752,-1.058518 c 0.11454,-4.463877 -3.94808,1.888901 0.11861,0.52988 l 0.0307,-0.192588 -0.14929,-0.337292 0,0 z m 5.18542,-2.298522 c -2.05692,-2.039717 -1.42509,4.547612 -0.12324,0.602693 l 0.12324,-0.602693 0,0 z m -2.89137,0.969696 c -1.00661,-0.72835 -1.49126,1.150858 0,0 z m -10.09628,-2.163549 c 1.68844,-3.480745 6.83862,-3.84407 10.33982,-4.88796 2.09093,-0.875846 7.20235,1.215248 2.35678,0.567338 -4.77234,-0.519355 -8.70304,4.721226 -12.6966,4.320622 l 0,0 z m -10.16751,7.505588 c 0.10245,-2.96886 -3.12372,-1.854493 -0.95753,0.305106 0.1715,0.401736 1.45329,0.408927 0.95753,-0.305106 z m 2.00111,-0.769797 c -0.29572,-2.856678 -2.18812,1.498285 0,0 z m 0.64102,-2.606316 c -1.04772,-0.495849 -6.28673,-0.231051 -2.63267,-0.03619 0.57125,-0.170512 2.73038,0.790596 2.63267,0.03619 z m -2.55894,-1.216386 c -1.91684,-0.281879 -0.37897,0.546565 0,0 l 0,0 z m -0.57014,-0.962981 c -1.43346,-0.618179 -1.70094,0.971224 0,0 z m 12.96745,49.781192 c -1.05136,-5.674868 -1.89154,-11.41334 -2.37907,-17.164351 2.45657,2.689497 2.60188,7.200532 3.4577,10.764344 -0.0917,1.155175 1.80323,8.50479 -1.07863,6.400007 z m 6.05003,-0.262986 c -1.87608,-3.962776 -3.45217,-8.200869 -4.09382,-12.544247 3.22002,-0.132135 3.78461,6.856128 4.82595,9.830891 0.14083,0.611811 0.86355,4.844415 -0.73213,2.713356 z m -24.8457,-1.90657 c -4.09527,-3.569962 -5.25581,-9.357809 -6.08913,-14.494574 -0.65748,-6.604714 -1.07398,-13.360395 0.69348,-19.841926 1.06737,-3.992763 1.31103,-8.57244 3.95759,-11.898769 2.9232,0.653494 -1.33113,5.694414 -1.29844,8.073898 -3.15689,11.219121 -3.61352,24.157365 2.48945,34.491985 0.74064,1.237052 4.61241,5.744675 0.24705,3.669386 z m 12.38541,-5.972345 c -3.03694,-5.457124 -6.14163,-11.009666 -7.98017,-16.997009 -0.85778,-1.766325 -0.59622,-8.93694 0.87903,-3.616386 0.94558,7.871621 5.40861,14.598255 8.98965,21.465787 0.49275,2.399653 -1.60481,-0.247354 -1.88851,-0.852392 z m 37.79887,1.821954 c -0.24737,-4.728735 2.42309,-9.344499 2.11625,-14.220104 0.43266,-12.300227 -0.25951,-25.478338 -7.22729,-36.080168 -0.89873,-3.591082 3.49502,2.269591 3.72371,3.618761 3.01656,6.734936 4.65256,14.090739 5.3805,21.418697 0.48727,8.326255 0.39202,17.004877 -2.65809,24.872085 -0.14747,0.499672 -0.94932,0.967166 -1.33508,0.390729 z m -35.6478,-2.827144 c -2.52223,-3.910649 -4.62915,-8.17896 -5.98394,-12.634764 0.51173,-2.839433 2.97066,4.919018 4.0623,6.382517 0.46557,2.065146 4.82515,6.591057 2.64128,7.008265 l -0.34718,-0.340375 -0.37246,-0.415643 0,0 z m -17.32085,-47.60875 c 4.95999,-5.897329 11.31087,-10.307506 17.73419,-14.453356 3.76656,-2.414011 6.98036,-5.565852 10.57178,-8.190936 1.83584,1.661931 -3.87328,4.838594 -5.48045,6.403275 -7.02294,5.079205 -14.17167,9.995699 -20.76264,15.640429 -0.34742,0.259003 -3.53783,2.73493 -2.06288,0.600588 z m 40.78263,-6.630482 c -2.91833,-3.725828 -6.14025,-7.625225 -7.24257,-12.319373 0.86591,-3.37414 3.36342,4.234546 4.76931,5.493755 0.93453,2.572946 5.83261,6.310947 4.03909,8.317758 -0.6061,-0.404613 -1.06055,-0.978884 -1.56583,-1.49214 z m -41.72196,0.321852 c 2.75405,-6.746303 7.9689,-12.202183 13.24188,-17.092532 1.85838,-1.726156 6.79921,-4.754734 8.29681,-3.006066 -3.43221,1.949904 -7.22964,3.499038 -9.82211,6.671441 -4.28002,4.180628 -7.29457,9.492128 -11.49407,13.699906 l -0.16944,-0.03222 -0.0531,-0.240518 0,0 z m 7.1365,-2.872654 c 1.43082,-3.563117 6.12427,-5.900711 9.10671,-8.691648 1.10547,-1.545642 7.93111,-5.190567 3.81052,-1.302517 -4.15019,3.448375 -8.30176,6.899502 -12.55986,10.213744 l -0.35737,-0.219579 0,0 z m 38.52348,-2.168399 c -1.25303,-2.945592 -5.57588,-6.777059 -4.9118,-9.409222 2.52294,2.671434 6.13787,6.580258 5.92321,10.171153 l -0.4774,-0.161918 -0.53402,-0.600013 10e-6,0 z"
     id="path2758" />
  <path
     style="fill:#ffccaa;fill-opacity:1;stroke:none;filter:url(#filter4245)"
     d="m 269.64588,68.266815 -7.96198,11.677577 -8.22739,2.919395 5.30799,14.331572 7.43119,4.777191 3.18479,-7.961985 1.327,-22.028158 z"
     id="path4183"
     inkscape:connector-curvature="0" />
  <path
     style="fill:#f7ca67;fill-opacity:1;stroke:#000000;stroke-width:2.79999995;stroke-linecap:butt;stroke-linejoin:miter;stroke-miterlimit:4;stroke-opacity:1;stroke-dasharray:none;filter:url(#filter4201)"
     d="m 132.11671,179.24933 -33.779837,-67.55968 78.068967,-10.50928 -24.77189,15.01326 c 0,0 19.13658,30.99112 55.54907,20.2679 19.13581,-5.63536 42.03714,-33.77984 42.03714,-33.77984 0,0 -22.01507,49.96288 -62.30505,56.29973 -34.3238,5.39848 -56.29972,-7.50663 -56.29972,-7.50663 z"
     id="path4199"
     inkscape:connector-curvature="0"
     sodipodi:nodetypes="ccccscscc" />
  <path
     style="fill:#5fd35f;stroke:#000000;stroke-width:2.5999999;stroke-linecap:butt;stroke-linejoin:miter;stroke-miterlimit:4;stroke-opacity:1;stroke-dasharray:none;filter:url(#filter3877)"
     d="M 57.050397,62.896554 C 113.35014,-19.67639 180.9098,29.116713 180.9098,29.116713 l 2.25199,-27.7745347 24.77189,71.3129967 -79.5703,0.750662 28.52522,-12.010612 c 0,0 -17.26527,-34.530501 -49.54378,-30.026523 C 84.73336,34.52379 57.050397,62.896554 57.050397,62.896554 z"
     id="path3101"
     inkscape:connector-curvature="0"
     sodipodi:nodetypes="ccccccsc" />
  <g
     transform="matrix(0.7459763,0.66597249,-0.66597249,0.7459763,0,0)"
     style="font-size:33.715271px;font-style:normal;font-weight:normal;line-height:125%;letter-spacing:0px;word-spacing:0px;fill:#002b11;fill-opacity:1;stroke:none;font-family:Sans"
     id="text3873">
    <path
       d="m 178.12097,-72.89782 c -3e-5,1.152385 -0.21514,2.220254 -0.64533,3.20361 -0.43025,0.983366 -1.08326,1.843807 -1.95905,2.581325 -0.87583,0.722159 -1.98979,1.306029 -3.34189,1.751614 -1.33678,0.430221 -2.91937,0.683744 -4.74779,0.760569 l 0,3.710655 -2.95009,0 0,-3.710655 c -3.30349,-0.107555 -5.8925,-0.868123 -7.76702,-2.281708 -1.85918,-1.428943 -3.04997,-3.426396 -3.57237,-5.992362 l 3.91808,-0.852759 c 0.16901,0.82972 0.42253,1.597971 0.76057,2.304754 0.35339,0.691433 0.82202,1.298352 1.4059,1.820757 0.59923,0.522416 1.32906,0.944954 2.18952,1.267615 0.86043,0.307304 1.8822,0.491685 3.06532,0.553141 l 0,-11.270251 c -0.12293,-0.03072 -0.23817,-0.06145 -0.34571,-0.09219 -0.0615,-0.01535 -0.1383,-0.0384 -0.23048,-0.06914 -0.0461,-0.01535 -0.0845,-0.02303 -0.11524,-0.02305 -0.7529,-0.184362 -1.50578,-0.384112 -2.25866,-0.599232 -0.75289,-0.23046 -1.46737,-0.49167 -2.14342,-0.78362 -0.67607,-0.30728 -1.30603,-0.66836 -1.8899,-1.08324 -0.58387,-0.4302 -1.09092,-0.92188 -1.52114,-1.47504 -0.43022,-0.56849 -0.76825,-1.2215 -1.01409,-1.95904 -0.23048,-0.75287 -0.34571,-1.61331 -0.34571,-2.58133 0,-1.2599 0.24584,-2.34314 0.73752,-3.2497 0.49168,-0.92187 1.17542,-1.68244 2.05123,-2.28171 0.8758,-0.61457 1.91294,-1.07552 3.11142,-1.38285 1.21383,-0.30727 2.53522,-0.48397 3.96418,-0.53009 l 0,-2.99618 2.95009,0 0,2.99618 c 1.56721,0.0615 2.90397,0.26123 4.01027,0.59923 1.12163,0.33806 2.07426,0.81438 2.85789,1.42895 0.7836,0.61463 1.42125,1.3752 1.91295,2.28171 0.49166,0.8912 0.89115,1.92065 1.19847,3.08837 l -4.01027,0.76057 c -0.15367,-0.7375 -0.38415,-1.40588 -0.69143,-2.00514 -0.29195,-0.61457 -0.68376,-1.13698 -1.17542,-1.56723 -0.47634,-0.44556 -1.05252,-0.79127 -1.72857,-1.03714 -0.67608,-0.26118 -1.46737,-0.42251 -2.37389,-0.484 l 0,9.81826 c 0.89115,0.21512 1.77464,0.4456 2.65046,0.69142 0.87579,0.23049 1.7055,0.51475 2.48914,0.85276 0.79896,0.32268 1.53648,0.70681 2.21256,1.15238 0.67604,0.445599 1.25991,0.983375 1.75162,1.613327 0.50702,0.614614 0.89883,1.33677 1.17542,2.166469 0.27655,0.829723 0.41483,1.797719 0.41486,2.903991 m -19.54432,-14.704337 c -1e-5,0.82974 0.15364,1.52116 0.46095,2.07428 0.30729,0.5378 0.72215,0.99107 1.24457,1.35981 0.53776,0.35341 1.16005,0.64535 1.86685,0.8758 0.72214,0.2305 1.49808,0.45329 2.3278,0.66838 l 0,-9.51864 c -1.09093,0.0461 -2.01283,0.19978 -2.76571,0.46096 -0.75289,0.24586 -1.35981,0.57621 -1.82075,0.99104 -0.46096,0.39952 -0.79899,0.86815 -1.01409,1.4059 -0.19976,0.52244 -0.29963,1.08326 -0.29962,1.68247 m 15.58014,14.635195 c -2e-5,-0.967987 -0.1844,-1.759286 -0.55314,-2.373898 -0.36878,-0.629954 -0.86046,-1.144682 -1.47504,-1.544185 -0.61463,-0.399478 -1.3291,-0.722143 -2.14343,-0.967997 -0.81436,-0.261192 -1.66712,-0.507032 -2.55827,-0.737522 l 0,10.855395 c 0.99871,-0.06146 1.90524,-0.207424 2.71961,-0.437903 0.82969,-0.230472 1.53648,-0.560819 2.12037,-0.991045 0.59922,-0.430215 1.06017,-0.960308 1.38285,-1.590281 0.33801,-0.629959 0.50703,-1.36748 0.50705,-2.212564"
       style="font-size:47.20137787px;font-variant:normal;font-stretch:normal;text-align:start;writing-mode:lr-tb;text-anchor:start;fill:#002b11;stroke:#ffffff;stroke-width:1;stroke-miterlimit:4;stroke-opacity:0.37603311;stroke-dasharray:none;font-family:Liberation Mono;-inkscape-font-specification:Liberation Mono"
       id="path3892"
       inkscape:connector-curvature="0" />
  </g>
  <g
     id="g4776"
     transform="matrix(0.38246945,0.03838326,0.03838326,-0.38246945,139.71374,126.78283)"
     style="fill:#000000;fill-opacity:1;stroke:#ffffff;stroke-width:3.08019996;stroke-miterlimit:4;stroke-opacity:0.60330577;stroke-dasharray:none">
    <path
       inkscape:connector-curvature="0"
       d="m 0,0 c -2.226,-8.924 -15.975,-4.389 -20.435,-3.277 l 3.933,15.772 C -12.044,11.383 2.321,9.309 0,0 m -2.44,-25.452 c -2.445,-9.811 -18.961,-4.507 -24.319,-3.176 l 4.339,17.389 c 5.355,-1.335 22.53,-3.981 19.98,-14.213 M 15.609,-0.141 C 17.042,9.441 9.746,14.591 -0.229,18.026 l 3.235,12.978 -7.9,1.969 -3.151,-12.636 c -2.079,0.518 -4.21,1.006 -6.331,1.489 l 3.171,12.719 -7.893,1.969 -3.239,-12.974 c -1.719,0.391 -3.407,0.778 -5.046,1.186 l 0.008,0.039 -10.894,2.72 -2.101,-8.437 c 0,0 5.861,-1.342 5.737,-1.427 3.2,-0.799 3.778,-2.915 3.681,-4.594 l -3.685,-14.785 c 0.22,-0.057 0.505,-0.136 0.822,-0.264 -0.264,0.066 -0.545,0.137 -0.835,0.207 l -5.166,-20.71 c -0.392,-0.972 -1.385,-2.431 -3.621,-1.877 0.079,-0.115 -5.745,1.432 -5.745,1.432 l -3.921,-9.041 10.281,-2.563 c 1.911,-0.478 3.788,-0.979 5.632,-1.453 l -3.268,-13.127 7.891,-1.969 3.237,12.987 c 2.158,-0.584 4.25,-1.125 6.298,-1.634 l -3.226,-12.926 7.901,-1.969 3.269,13.102 c 13.473,-2.548 23.604,-1.52 27.866,10.664 3.437,9.809 -0.17,15.468 -7.258,19.159 5.162,1.191 9.051,4.587 10.089,11.599"
       style="fill:#000000;fill-opacity:1;fill-rule:nonzero;stroke:#ffffff;stroke-width:3.08019996;stroke-miterlimit:4;stroke-opacity:0.60330577;stroke-dasharray:none"
       id="path4778" />
  </g>
  <path
     sodipodi:type="arc"
     style="fill:#ffccaa;fill-opacity:1;stroke:none;filter:url(#filter4128)"
     id="path4144"
     sodipodi:cx="48.042439"
     sodipodi:cy="134.13576"
     sodipodi:rx="37.533157"
     sodipodi:ry="60.729923"
     d="m 85.575596,134.13576 a 37.533157,60.729923 0 1 1 -75.066315,0 37.533157,60.729923 0 1 1 75.066315,0 z"
     transform="matrix(0.10464361,0.01991744,-0.0214261,0.18459363,77.309294,107.60171)" />
  <path
     style="fill:#000000"
     d="m 45.514601,173.41344 c -10.725659,-2.37949 -18.567228,-11.91617 -22.261652,-21.84029 -0.551116,-5.11401 -6.758839,-5.42506 -8.878928,-9.9848 -1.977663,-4.2479 -4.015681,-8.79601 -3.207459,-13.62183 -2.4891019,-3.34815 -1.4517459,-7.70731 -3.789612,-11.51583 -3.9741742,-4.44832 0.5629444,-8.77961 1.9487962,-13.35944 3.6542648,-9.744214 9.1197608,-19.268211 17.3197088,-25.865288 1.395036,-1.129284 8.742497,-4.706686 3.13613,-3.509888 -3.645333,0.707504 -7.02202,4.177833 -10.327853,4.323977 2.442721,-3.819702 7.315559,-5.644172 11.692534,-6.245276 1.968198,-0.259257 7.215592,-0.564852 2.517099,-1.414271 -2.022691,-0.750468 -9.30894,1.529538 -8.320123,-1.121313 7.179499,-1.959703 15.726526,-0.68294 20.745127,5.214689 1.944758,1.546379 5.104517,-0.991341 7.608944,-0.142872 8.740819,0.0737 17.71577,3.300937 23.218462,10.364706 4.434867,5.231156 7.802965,11.250123 11.930292,16.710996 0.490781,4.62817 0.09506,9.47637 -1.706986,14.00461 -0.922363,4.73467 -2.128525,9.33522 -2.362771,14.18858 -1.029122,5.20904 -2.112321,11.48222 -5.906625,15.20463 -1.678267,0.92306 -4.767586,0.32656 -4.56045,3.02486 -1.221306,5.61708 -3.052593,11.31352 -7.305004,15.41534 -3.895415,4.55938 -8.297439,9.60409 -14.728599,10.05588 -2.232076,0.33572 -4.522517,0.46628 -6.761031,0.11283 z m 10.610498,-4.22098 c 5.308453,-2.06175 8.77828,-6.91128 12.331713,-11.12088 4.478311,-6.78094 4.714728,-15.27059 5.98502,-23.06019 0.365783,-5.03534 1.804075,-10.15089 0.916803,-15.18223 -2.784012,-7.33062 -7.077723,-14.15663 -12.309018,-19.99595 -1.918214,-1.802768 -5.589967,-4.70633 -7.237792,-5.035809 -0.127289,2.932192 3.165446,9.222829 0.416668,10.375359 -1.805858,-2.336 -1.321755,-10.04571 -2.787526,-9.685262 -0.498184,5.483172 -0.362049,11.543212 -3.556632,16.269262 -3.32954,-0.79243 1.208931,-7.09274 1.071798,-10.11629 0.456583,-3.298204 1.767761,-7.801382 0.118957,-10.452155 -0.987041,6.620649 -1.816532,13.635035 -5.708172,19.313475 -2.378866,-1.8746 1.867723,-8.2374 2.173707,-11.641443 1.043615,-2.286673 1.358043,-7.212099 -0.837399,-2.498406 -2.571973,4.826789 -5.021808,10.182829 -9.730583,13.273249 -0.531192,-2.9616 4.072261,-6.28998 5.305749,-9.55245 1.080167,-1.65363 5.094387,-8.726469 1.288818,-4.564801 -4.431566,4.848361 -8.933671,9.664231 -12.945659,14.868551 2.126921,1.7416 9.914948,-1.09941 9.864788,2.85616 -5.392208,1.69691 -12.102256,-0.01 -16.397622,4.56809 -1.558273,1.30412 -4.039837,2.13422 -3.145702,4.58645 0.475813,11.53153 1.568622,23.40772 6.500068,33.98094 3.844752,5.59205 7.761432,12.26282 14.986344,13.72448 4.499453,1.18895 9.483941,1.34915 13.695672,-0.91015 z M 44.838728,152.44073 c -5.171819,-1.02653 4.311573,-0.231 5.682952,-0.44715 1.435213,-0.50852 6.977965,-1.85772 3.044498,0.27333 -2.853278,0.64993 -5.843313,0.55051 -8.72745,0.17382 z m 15.73257,-6.67836 c -2.353655,2.37937 -7.891339,3.15928 -11.66222,3.86542 -3.880664,0.002 -8.167754,1.05897 -11.91181,-2.4529 9.313283,3.11053 18.456706,0.15152 23.57403,-1.41252 z M 46.431363,141.2568 c -5.440293,-1.988 -2.30897,-8.60244 -2.138521,-12.75271 -0.105167,-1.84644 1.890746,-7.67002 1.670267,-2.68905 0.01713,4.37767 -1.798409,9.11977 -0.59433,13.24767 2.924481,2.5255 7.238921,-0.10245 9.453276,-0.26702 -1.379271,3.18217 -5.537049,3.12914 -8.390692,2.46111 z m 12.485971,-7.57736 c 1.173715,-1.94237 1.046069,1.55811 0,0 z m -27.456987,-8.6543 c -4.209915,-2.10645 4.953708,-0.10279 6.235994,-0.89116 -1.495625,1.75568 -4.248302,1.72513 -6.235994,0.89116 z m 25.688572,-0.91454 c -3.041822,-1.9705 4.49818,0.58321 5.917172,-0.82073 4.529535,-0.13439 -4.151139,2.12466 -5.917172,0.82073 z m -24.664752,-1.91531 c -2.457958,0.11113 1.410581,-2.6402 -2.193293,-1.20235 -1.494729,1.33691 -4.987526,1.30111 -1.80547,-0.57185 3.283089,-2.54789 10.648901,-2.7296 11.654568,1.94647 -2.207527,-0.95651 -3.52144,-2.12516 -2.607864,-0.24855 -1.529564,0.88749 -3.429409,0.37914 -5.047941,0.0763 z m 2.776338,-2.16149 c -1.004774,-1.08771 -0.138539,1.76797 -2e-6,1e-5 z m 22.167637,2.19345 c -0.15087,-2.11931 -1.133581,-0.47778 -2.92716,-0.34247 1.982405,-4.99265 9.83154,-4.31885 12.81841,-0.47133 -1.116715,1.82727 -4.056188,-2.70882 -5.435586,0.40354 -1.41238,0.41961 -3.024528,1.25066 -4.455664,0.41026 z m 2.445898,-2.04815 c -1.587453,-1.2118 0.404554,2.32955 0,0 z m 4.255468,-1.83263 c -2.193234,-2.00189 -6.397105,0.36605 -7.685056,-0.0471 2.518385,-2.44789 8.675109,-1.74378 9.693296,0.94241 -0.692616,-0.24479 -1.33967,-0.59534 -2.00824,-0.89528 z m -35.943967,0.0224 c 2.274408,-2.25062 9.484292,-0.9369 9.545984,-0.0291 -3.095672,-1.37474 -7.58327,-0.62106 -9.545984,0.0291 z m 38.081271,-3.34331 c -3.248402,-1.60134 -10.058244,-0.0606 -11.312442,-2.91173 4.495921,-1.65745 10.8094,-1.36756 13.788761,2.91197 -0.06598,1.15752 -1.889767,0.10863 -2.476319,-2.4e-4 z m -44.581901,30.07101 c -1.310084,-4.5942 -1.083398,-9.70359 -4.214545,-13.61826 -1.063138,-2.83757 -5.067477,-5.79373 -4.631446,-0.70835 0.280876,3.97217 2.037468,8.07081 4.496397,11.14602 1.230612,0.78918 2.90594,3.80204 4.349594,3.18059 z m 56.05638,-1.49489 c 3.432613,-5.28732 6.093153,-11.58849 5.360302,-17.98979 -1.952074,-6.41376 -6.119012,3.45445 -5.914074,6.49934 0.165938,3.6158 -3.280665,9.87986 -0.109407,11.76229 z"
     id="path1873"
     inkscape:connector-curvature="0"
     sodipodi:nodetypes="cccccccccccccccccccccccccccccccccccccccccccccccccccccccccccccccccccccccccccccccccccccccccccccccccccccccccccc" />
</svg>
